<mxfile host="app.diagrams.net" modified="2024-02-20T19:47:54.704Z" agent="Mozilla/5.0 (X11; CrOS x86_64 14541.0.0) AppleWebKit/537.36 (KHTML, like Gecko) Chrome/120.0.0.0 Safari/537.36" etag="_farZjG6z_UbQQuDnwIb" version="23.1.5" type="github">
  <diagram id="0mjqS65ysRhbSJSzWi_G" name="Task 2-secured_and_monitored_web_infrastructure">
    <mxGraphModel dx="2954" dy="1468" grid="0" gridSize="10" guides="1" tooltips="1" connect="1" arrows="1" fold="1" page="0" pageScale="1" pageWidth="850" pageHeight="1100" math="0" shadow="0">
      <root>
        <mxCell id="0" />
        <mxCell id="1" parent="0" />
        <mxCell id="Od4-uNHZh2Ep6syD_bzf-2" value="" style="verticalLabelPosition=bottom;sketch=0;aspect=fixed;html=1;verticalAlign=top;strokeColor=none;align=center;outlineConnect=0;shape=mxgraph.citrix.dns_server;fontColor=#46495D;fillColor=#B2C9AB;" parent="1" vertex="1">
          <mxGeometry x="-212" y="-278" width="64.92" height="78.5" as="geometry" />
        </mxCell>
        <mxCell id="Od4-uNHZh2Ep6syD_bzf-38" value="Local DNS" style="text;html=1;align=center;verticalAlign=middle;resizable=0;points=[];autosize=1;strokeColor=none;fillColor=none;fontColor=#46495D;" parent="1" vertex="1">
          <mxGeometry x="-301" y="-271" width="77" height="26" as="geometry" />
        </mxCell>
        <mxCell id="EoS8bVIuz2fhn0G_VsdN-4" value="" style="group" parent="1" vertex="1" connectable="0">
          <mxGeometry x="-413" y="-245" width="906" height="563" as="geometry" />
        </mxCell>
        <mxCell id="YyOqCC4rJOKeQD2NUwK2-1" value="" style="fontColor=#46495D;verticalAlign=top;verticalLabelPosition=bottom;labelPosition=center;align=center;html=1;outlineConnect=0;fillColor=#B2C9AB;strokeColor=#788AA3;gradientDirection=north;strokeWidth=2;shape=mxgraph.networks.pc;labelBackgroundColor=none;" parent="EoS8bVIuz2fhn0G_VsdN-4" vertex="1">
          <mxGeometry y="137" width="81" height="53" as="geometry" />
        </mxCell>
        <mxCell id="Od4-uNHZh2Ep6syD_bzf-7" value="" style="sketch=0;outlineConnect=0;fontColor=#232F3E;gradientColor=none;fillColor=#232F3D;strokeColor=none;dashed=0;verticalLabelPosition=bottom;verticalAlign=top;align=center;html=1;fontSize=12;fontStyle=0;aspect=fixed;pointerEvents=1;shape=mxgraph.aws4.ssl_padlock;" parent="EoS8bVIuz2fhn0G_VsdN-4" vertex="1">
          <mxGeometry x="177" y="140.9" width="47.32" height="46.1" as="geometry" />
        </mxCell>
        <mxCell id="Od4-uNHZh2Ep6syD_bzf-9" value="" style="outlineConnect=0;dashed=0;verticalLabelPosition=bottom;verticalAlign=top;align=center;html=1;shape=mxgraph.aws3.internet_3;fillColor=#D2D3D3;gradientColor=none;strokeColor=#788AA3;fontColor=#46495D;" parent="EoS8bVIuz2fhn0G_VsdN-4" vertex="1">
          <mxGeometry x="337" y="132" width="65.5" height="43" as="geometry" />
        </mxCell>
        <mxCell id="Od4-uNHZh2Ep6syD_bzf-26" value="" style="verticalLabelPosition=bottom;sketch=0;aspect=fixed;html=1;verticalAlign=top;strokeColor=none;align=center;outlineConnect=0;shape=mxgraph.citrix.dns_server;fontColor=#46495D;fillColor=#B2C9AB;" parent="EoS8bVIuz2fhn0G_VsdN-4" vertex="1">
          <mxGeometry x="438" width="61.61" height="74.5" as="geometry" />
        </mxCell>
        <mxCell id="Od4-uNHZh2Ep6syD_bzf-31" value="" style="endArrow=classic;startArrow=classic;html=1;rounded=0;strokeColor=#788AA3;fontColor=#46495D;fillColor=#B2C9AB;exitX=1;exitY=0.07;exitDx=0;exitDy=0;exitPerimeter=0;" parent="EoS8bVIuz2fhn0G_VsdN-4" source="YyOqCC4rJOKeQD2NUwK2-1" target="Od4-uNHZh2Ep6syD_bzf-2" edge="1">
          <mxGeometry width="50" height="50" relative="1" as="geometry">
            <mxPoint x="812" y="198" as="sourcePoint" />
            <mxPoint x="862" y="148" as="targetPoint" />
          </mxGeometry>
        </mxCell>
        <mxCell id="Od4-uNHZh2Ep6syD_bzf-32" value="" style="endArrow=classic;startArrow=classic;html=1;rounded=0;strokeColor=#788AA3;fontColor=#46495D;fillColor=#B2C9AB;entryX=0;entryY=0.7;entryDx=0;entryDy=0;entryPerimeter=0;" parent="EoS8bVIuz2fhn0G_VsdN-4" source="Od4-uNHZh2Ep6syD_bzf-7" target="Od4-uNHZh2Ep6syD_bzf-9" edge="1">
          <mxGeometry width="50" height="50" relative="1" as="geometry">
            <mxPoint x="91" y="151" as="sourcePoint" />
            <mxPoint x="211" y="45" as="targetPoint" />
          </mxGeometry>
        </mxCell>
        <mxCell id="Od4-uNHZh2Ep6syD_bzf-33" value="" style="endArrow=classic;startArrow=classic;html=1;rounded=0;strokeColor=#788AA3;fontColor=#46495D;fillColor=#B2C9AB;exitX=1;exitY=0.5;exitDx=0;exitDy=0;exitPerimeter=0;" parent="EoS8bVIuz2fhn0G_VsdN-4" source="YyOqCC4rJOKeQD2NUwK2-1" target="Od4-uNHZh2Ep6syD_bzf-7" edge="1">
          <mxGeometry width="50" height="50" relative="1" as="geometry">
            <mxPoint x="101" y="161" as="sourcePoint" />
            <mxPoint x="221" y="55" as="targetPoint" />
          </mxGeometry>
        </mxCell>
        <mxCell id="Od4-uNHZh2Ep6syD_bzf-34" value="" style="endArrow=classic;startArrow=classic;html=1;rounded=0;strokeColor=#788AA3;fontColor=#46495D;fillColor=#B2C9AB;" parent="EoS8bVIuz2fhn0G_VsdN-4" source="Od4-uNHZh2Ep6syD_bzf-9" target="Od4-uNHZh2Ep6syD_bzf-26" edge="1">
          <mxGeometry width="50" height="50" relative="1" as="geometry">
            <mxPoint x="234" y="174" as="sourcePoint" />
            <mxPoint x="347" y="172" as="targetPoint" />
            <Array as="points" />
          </mxGeometry>
        </mxCell>
        <mxCell id="Od4-uNHZh2Ep6syD_bzf-35" value="SSL&amp;nbsp;Cert" style="text;html=1;align=center;verticalAlign=middle;resizable=0;points=[];autosize=1;strokeColor=none;fillColor=none;fontColor=#46495D;" parent="EoS8bVIuz2fhn0G_VsdN-4" vertex="1">
          <mxGeometry x="94" y="166" width="67" height="26" as="geometry" />
        </mxCell>
        <mxCell id="Od4-uNHZh2Ep6syD_bzf-37" value="External DNS" style="text;html=1;align=center;verticalAlign=middle;resizable=0;points=[];autosize=1;strokeColor=none;fillColor=none;fontColor=#46495D;" parent="EoS8bVIuz2fhn0G_VsdN-4" vertex="1">
          <mxGeometry x="337" width="92" height="26" as="geometry" />
        </mxCell>
        <mxCell id="Od4-uNHZh2Ep6syD_bzf-39" value="Internet" style="text;html=1;align=center;verticalAlign=middle;resizable=0;points=[];autosize=1;strokeColor=none;fillColor=none;fontColor=#46495D;" parent="EoS8bVIuz2fhn0G_VsdN-4" vertex="1">
          <mxGeometry x="340.25" y="181" width="59" height="26" as="geometry" />
        </mxCell>
        <mxCell id="Od4-uNHZh2Ep6syD_bzf-42" value="" style="edgeStyle=elbowEdgeStyle;elbow=vertical;endArrow=classic;html=1;curved=0;rounded=0;endSize=8;startSize=8;strokeColor=#788AA3;fontColor=#46495D;fillColor=#B2C9AB;exitX=0.484;exitY=0.883;exitDx=0;exitDy=0;exitPerimeter=0;" parent="EoS8bVIuz2fhn0G_VsdN-4" source="Od4-uNHZh2Ep6syD_bzf-39" target="Od4-uNHZh2Ep6syD_bzf-43" edge="1">
          <mxGeometry width="50" height="50" relative="1" as="geometry">
            <mxPoint x="491" y="260" as="sourcePoint" />
            <mxPoint x="259" y="369" as="targetPoint" />
          </mxGeometry>
        </mxCell>
        <mxCell id="Od4-uNHZh2Ep6syD_bzf-43" value="" style="fillColor=#999999;verticalLabelPosition=bottom;sketch=0;html=1;strokeColor=#ffffff;verticalAlign=top;align=center;points=[[0.145,0.145,0],[0.5,0,0],[0.855,0.145,0],[1,0.5,0],[0.855,0.855,0],[0.5,1,0],[0.145,0.855,0],[0,0.5,0]];pointerEvents=1;shape=mxgraph.cisco_safe.compositeIcon;bgIcon=ellipse;resIcon=mxgraph.cisco_safe.capability.load_balancer;fontColor=#46495D;" parent="EoS8bVIuz2fhn0G_VsdN-4" vertex="1">
          <mxGeometry x="237.5" y="347.5" width="43" height="43" as="geometry" />
        </mxCell>
        <mxCell id="Od4-uNHZh2Ep6syD_bzf-44" value="HAproxy&lt;br&gt;Load Balancer" style="text;html=1;align=center;verticalAlign=middle;resizable=0;points=[];autosize=1;strokeColor=none;fillColor=none;fontColor=#46495D;" parent="EoS8bVIuz2fhn0G_VsdN-4" vertex="1">
          <mxGeometry x="209.99999999999997" y="394" width="98" height="41" as="geometry" />
        </mxCell>
        <mxCell id="Od4-uNHZh2Ep6syD_bzf-46" value="" style="sketch=0;pointerEvents=1;shadow=0;dashed=0;html=1;strokeColor=none;fillColor=#005F4B;labelPosition=center;verticalLabelPosition=bottom;verticalAlign=top;align=center;outlineConnect=0;shape=mxgraph.veeam2.laptop;fontColor=#46495D;" parent="EoS8bVIuz2fhn0G_VsdN-4" vertex="1">
          <mxGeometry x="432" y="248" width="48" height="28.000000000000004" as="geometry" />
        </mxCell>
        <mxCell id="Od4-uNHZh2Ep6syD_bzf-48" value="" style="sketch=0;pointerEvents=1;shadow=0;dashed=0;html=1;strokeColor=none;fillColor=#005F4B;labelPosition=center;verticalLabelPosition=bottom;verticalAlign=top;align=center;outlineConnect=0;shape=mxgraph.veeam2.laptop;fontColor=#46495D;" parent="EoS8bVIuz2fhn0G_VsdN-4" vertex="1">
          <mxGeometry x="415" y="484" width="48" height="28.000000000000004" as="geometry" />
        </mxCell>
        <mxCell id="Od4-uNHZh2Ep6syD_bzf-49" value="M.C." style="text;html=1;align=center;verticalAlign=middle;resizable=0;points=[];autosize=1;strokeColor=none;fillColor=none;fontColor=#46495D;" parent="EoS8bVIuz2fhn0G_VsdN-4" vertex="1">
          <mxGeometry x="434.5" y="283" width="43" height="26" as="geometry" />
        </mxCell>
        <mxCell id="Od4-uNHZh2Ep6syD_bzf-50" value="M.C" style="text;html=1;align=center;verticalAlign=middle;resizable=0;points=[];autosize=1;strokeColor=none;fillColor=none;fontColor=#46495D;" parent="EoS8bVIuz2fhn0G_VsdN-4" vertex="1">
          <mxGeometry x="419" y="514" width="40" height="26" as="geometry" />
        </mxCell>
        <mxCell id="Od4-uNHZh2Ep6syD_bzf-51" value="M.C." style="text;html=1;align=center;verticalAlign=middle;resizable=0;points=[];autosize=1;strokeColor=none;fillColor=none;fontColor=#46495D;" parent="EoS8bVIuz2fhn0G_VsdN-4" vertex="1">
          <mxGeometry x="401.75" y="371.5" width="43" height="26" as="geometry" />
        </mxCell>
        <mxCell id="Od4-uNHZh2Ep6syD_bzf-52" value="" style="endArrow=classic;startArrow=classic;html=1;rounded=0;strokeColor=#788AA3;fontColor=#46495D;fillColor=#B2C9AB;exitX=1.012;exitY=0.093;exitDx=0;exitDy=0;exitPerimeter=0;" parent="EoS8bVIuz2fhn0G_VsdN-4" source="Od4-uNHZh2Ep6syD_bzf-43" target="Od4-uNHZh2Ep6syD_bzf-46" edge="1">
          <mxGeometry width="50" height="50" relative="1" as="geometry">
            <mxPoint x="465" y="390" as="sourcePoint" />
            <mxPoint x="515" y="340" as="targetPoint" />
          </mxGeometry>
        </mxCell>
        <mxCell id="Od4-uNHZh2Ep6syD_bzf-53" value="" style="endArrow=classic;startArrow=classic;html=1;rounded=0;strokeColor=#788AA3;fontColor=#46495D;fillColor=#B2C9AB;exitX=1;exitY=0.5;exitDx=0;exitDy=0;exitPerimeter=0;" parent="EoS8bVIuz2fhn0G_VsdN-4" source="Od4-uNHZh2Ep6syD_bzf-43" target="Od4-uNHZh2Ep6syD_bzf-47" edge="1">
          <mxGeometry width="50" height="50" relative="1" as="geometry">
            <mxPoint x="291" y="361" as="sourcePoint" />
            <mxPoint x="372" y="332" as="targetPoint" />
          </mxGeometry>
        </mxCell>
        <mxCell id="Od4-uNHZh2Ep6syD_bzf-54" value="" style="endArrow=classic;startArrow=classic;html=1;rounded=0;strokeColor=#788AA3;fontColor=#46495D;fillColor=#B2C9AB;exitX=1.023;exitY=0.772;exitDx=0;exitDy=0;exitPerimeter=0;" parent="EoS8bVIuz2fhn0G_VsdN-4" source="Od4-uNHZh2Ep6syD_bzf-43" target="Od4-uNHZh2Ep6syD_bzf-48" edge="1">
          <mxGeometry width="50" height="50" relative="1" as="geometry">
            <mxPoint x="287" y="447" as="sourcePoint" />
            <mxPoint x="368" y="418" as="targetPoint" />
          </mxGeometry>
        </mxCell>
        <mxCell id="Od4-uNHZh2Ep6syD_bzf-55" value="" style="endArrow=classic;startArrow=classic;html=1;rounded=0;strokeColor=#788AA3;fontColor=#46495D;fillColor=#B2C9AB;" parent="EoS8bVIuz2fhn0G_VsdN-4" source="Od4-uNHZh2Ep6syD_bzf-46" target="Od4-uNHZh2Ep6syD_bzf-56" edge="1">
          <mxGeometry width="50" height="50" relative="1" as="geometry">
            <mxPoint x="468" y="317" as="sourcePoint" />
            <mxPoint x="518" y="267" as="targetPoint" />
          </mxGeometry>
        </mxCell>
        <mxCell id="Od4-uNHZh2Ep6syD_bzf-56" value="" style="sketch=0;outlineConnect=0;fontColor=#232F3E;gradientColor=none;fillColor=#232F3D;strokeColor=none;dashed=0;verticalLabelPosition=bottom;verticalAlign=top;align=center;html=1;fontSize=12;fontStyle=0;aspect=fixed;pointerEvents=1;shape=mxgraph.aws4.generic_firewall;" parent="EoS8bVIuz2fhn0G_VsdN-4" vertex="1">
          <mxGeometry x="563.59" y="205" width="37.82" height="32" as="geometry" />
        </mxCell>
        <mxCell id="Od4-uNHZh2Ep6syD_bzf-57" value="" style="sketch=0;outlineConnect=0;fontColor=#232F3E;gradientColor=none;fillColor=#232F3D;strokeColor=none;dashed=0;verticalLabelPosition=bottom;verticalAlign=top;align=center;html=1;fontSize=12;fontStyle=0;aspect=fixed;pointerEvents=1;shape=mxgraph.aws4.generic_firewall;" parent="EoS8bVIuz2fhn0G_VsdN-4" vertex="1">
          <mxGeometry x="557" y="345.5" width="37.82" height="32" as="geometry" />
        </mxCell>
        <mxCell id="Od4-uNHZh2Ep6syD_bzf-58" value="" style="sketch=0;outlineConnect=0;fontColor=#232F3E;gradientColor=none;fillColor=#232F3D;strokeColor=none;dashed=0;verticalLabelPosition=bottom;verticalAlign=top;align=center;html=1;fontSize=12;fontStyle=0;aspect=fixed;pointerEvents=1;shape=mxgraph.aws4.generic_firewall;" parent="EoS8bVIuz2fhn0G_VsdN-4" vertex="1">
          <mxGeometry x="549" y="482" width="37.82" height="32" as="geometry" />
        </mxCell>
        <mxCell id="Od4-uNHZh2Ep6syD_bzf-59" value="" style="endArrow=classic;startArrow=classic;html=1;rounded=0;strokeColor=#788AA3;fontColor=#46495D;fillColor=#B2C9AB;" parent="EoS8bVIuz2fhn0G_VsdN-4" source="Od4-uNHZh2Ep6syD_bzf-47" target="Od4-uNHZh2Ep6syD_bzf-57" edge="1">
          <mxGeometry width="50" height="50" relative="1" as="geometry">
            <mxPoint x="411" y="365" as="sourcePoint" />
            <mxPoint x="549" y="363" as="targetPoint" />
          </mxGeometry>
        </mxCell>
        <mxCell id="Od4-uNHZh2Ep6syD_bzf-60" value="" style="endArrow=classic;startArrow=classic;html=1;rounded=0;strokeColor=#788AA3;fontColor=#46495D;fillColor=#B2C9AB;" parent="EoS8bVIuz2fhn0G_VsdN-4" source="Od4-uNHZh2Ep6syD_bzf-48" target="Od4-uNHZh2Ep6syD_bzf-58" edge="1">
          <mxGeometry width="50" height="50" relative="1" as="geometry">
            <mxPoint x="411" y="422" as="sourcePoint" />
            <mxPoint x="549" y="420" as="targetPoint" />
          </mxGeometry>
        </mxCell>
        <mxCell id="Od4-uNHZh2Ep6syD_bzf-61" value="Firewall" style="text;html=1;align=center;verticalAlign=middle;resizable=0;points=[];autosize=1;strokeColor=none;fillColor=none;fontColor=#46495D;" parent="EoS8bVIuz2fhn0G_VsdN-4" vertex="1">
          <mxGeometry x="552" y="250" width="61" height="26" as="geometry" />
        </mxCell>
        <mxCell id="Od4-uNHZh2Ep6syD_bzf-62" value="Firewall" style="text;html=1;align=center;verticalAlign=middle;resizable=0;points=[];autosize=1;strokeColor=none;fillColor=none;fontColor=#46495D;" parent="EoS8bVIuz2fhn0G_VsdN-4" vertex="1">
          <mxGeometry x="545.41" y="380" width="61" height="26" as="geometry" />
        </mxCell>
        <mxCell id="Od4-uNHZh2Ep6syD_bzf-63" value="Firewall" style="text;html=1;align=center;verticalAlign=middle;resizable=0;points=[];autosize=1;strokeColor=none;fillColor=none;fontColor=#46495D;" parent="EoS8bVIuz2fhn0G_VsdN-4" vertex="1">
          <mxGeometry x="537.41" y="519" width="61" height="26" as="geometry" />
        </mxCell>
        <mxCell id="Od4-uNHZh2Ep6syD_bzf-64" value="www.foobar.com" style="text;html=1;align=center;verticalAlign=middle;resizable=0;points=[];autosize=1;strokeColor=none;fillColor=none;fontColor=#46495D;rotation=-42;" parent="EoS8bVIuz2fhn0G_VsdN-4" vertex="1">
          <mxGeometry x="94" y="80" width="107" height="26" as="geometry" />
        </mxCell>
        <mxCell id="Od4-uNHZh2Ep6syD_bzf-65" value="8.8.8.8" style="text;html=1;align=center;verticalAlign=middle;resizable=0;points=[];autosize=1;strokeColor=none;fillColor=none;fontColor=#46495D;rotation=-41;" parent="EoS8bVIuz2fhn0G_VsdN-4" vertex="1">
          <mxGeometry x="106" y="68" width="55" height="26" as="geometry" />
        </mxCell>
        <mxCell id="Od4-uNHZh2Ep6syD_bzf-101" value="" style="endArrow=classic;startArrow=classic;html=1;rounded=0;strokeColor=#788AA3;fontColor=#46495D;fillColor=#B2C9AB;" parent="EoS8bVIuz2fhn0G_VsdN-4" target="Od4-uNHZh2Ep6syD_bzf-47" edge="1">
          <mxGeometry width="50" height="50" relative="1" as="geometry">
            <mxPoint x="411" y="365" as="sourcePoint" />
            <mxPoint x="549" y="363" as="targetPoint" />
          </mxGeometry>
        </mxCell>
        <mxCell id="Od4-uNHZh2Ep6syD_bzf-47" value="" style="sketch=0;pointerEvents=1;shadow=0;dashed=0;html=1;strokeColor=none;fillColor=#005F4B;labelPosition=center;verticalLabelPosition=bottom;verticalAlign=top;align=center;outlineConnect=0;shape=mxgraph.veeam2.laptop;fontColor=#46495D;" parent="EoS8bVIuz2fhn0G_VsdN-4" vertex="1">
          <mxGeometry x="419" y="347.5" width="48" height="28.000000000000004" as="geometry" />
        </mxCell>
        <mxCell id="Od4-uNHZh2Ep6syD_bzf-107" value="" style="group" parent="EoS8bVIuz2fhn0G_VsdN-4" vertex="1" connectable="0">
          <mxGeometry x="680" y="453" width="226" height="110" as="geometry" />
        </mxCell>
        <mxCell id="Od4-uNHZh2Ep6syD_bzf-93" value="" style="rounded=1;whiteSpace=wrap;html=1;strokeColor=#788AA3;fontColor=#46495D;fillColor=#B2C9AB;container=0;" parent="Od4-uNHZh2Ep6syD_bzf-107" vertex="1">
          <mxGeometry y="1" width="226" height="109" as="geometry" />
        </mxCell>
        <mxCell id="Od4-uNHZh2Ep6syD_bzf-94" value="" style="sketch=0;aspect=fixed;pointerEvents=1;shadow=0;dashed=0;html=1;strokeColor=none;labelPosition=center;verticalLabelPosition=bottom;verticalAlign=top;align=center;fillColor=#00188D;shape=mxgraph.mscae.enterprise.application_server2;fontColor=#46495D;container=0;" parent="Od4-uNHZh2Ep6syD_bzf-107" vertex="1">
          <mxGeometry x="96.00999999999999" y="26" width="33.97" height="39.5" as="geometry" />
        </mxCell>
        <mxCell id="Od4-uNHZh2Ep6syD_bzf-95" value="" style="sketch=0;aspect=fixed;pointerEvents=1;shadow=0;dashed=0;html=1;strokeColor=none;labelPosition=center;verticalLabelPosition=bottom;verticalAlign=top;align=center;fillColor=#00188D;shape=mxgraph.mscae.enterprise.database_server;fontColor=#46495D;container=0;" parent="Od4-uNHZh2Ep6syD_bzf-107" vertex="1">
          <mxGeometry x="164.11" y="25" width="30.78" height="40.5" as="geometry" />
        </mxCell>
        <mxCell id="Od4-uNHZh2Ep6syD_bzf-96" value="" style="sketch=0;aspect=fixed;pointerEvents=1;shadow=0;dashed=0;html=1;strokeColor=none;labelPosition=center;verticalLabelPosition=bottom;verticalAlign=top;align=center;fillColor=#00188D;shape=mxgraph.mscae.enterprise.web_server;fontColor=#46495D;container=0;" parent="Od4-uNHZh2Ep6syD_bzf-107" vertex="1">
          <mxGeometry x="35.00999999999999" y="26.5" width="29.64" height="39" as="geometry" />
        </mxCell>
        <mxCell id="Od4-uNHZh2Ep6syD_bzf-97" value="Server3" style="text;html=1;align=center;verticalAlign=middle;resizable=0;points=[];autosize=1;strokeColor=none;fillColor=none;fontColor=#46495D;container=0;" parent="Od4-uNHZh2Ep6syD_bzf-107" vertex="1">
          <mxGeometry x="84.00999999999999" width="61" height="26" as="geometry" />
        </mxCell>
        <mxCell id="Od4-uNHZh2Ep6syD_bzf-98" value="Nginx" style="text;html=1;align=center;verticalAlign=middle;resizable=0;points=[];autosize=1;strokeColor=none;fillColor=none;fontColor=#46495D;container=0;" parent="Od4-uNHZh2Ep6syD_bzf-107" vertex="1">
          <mxGeometry x="19.00999999999999" y="60.5" width="50" height="26" as="geometry" />
        </mxCell>
        <mxCell id="Od4-uNHZh2Ep6syD_bzf-99" value="Active app" style="text;html=1;align=center;verticalAlign=middle;resizable=0;points=[];autosize=1;strokeColor=none;fillColor=none;fontColor=#46495D;container=0;" parent="Od4-uNHZh2Ep6syD_bzf-107" vertex="1">
          <mxGeometry x="75.5" y="60.5" width="75" height="26" as="geometry" />
        </mxCell>
        <mxCell id="Od4-uNHZh2Ep6syD_bzf-100" value="MySQL" style="text;html=1;align=center;verticalAlign=middle;resizable=0;points=[];autosize=1;strokeColor=none;fillColor=none;fontColor=#46495D;container=0;" parent="Od4-uNHZh2Ep6syD_bzf-107" vertex="1">
          <mxGeometry x="150.5" y="60.5" width="58" height="26" as="geometry" />
        </mxCell>
        <mxCell id="Od4-uNHZh2Ep6syD_bzf-105" value="" style="strokeWidth=2;html=1;shape=mxgraph.flowchart.annotation_2;align=left;labelPosition=right;pointerEvents=1;strokeColor=#788AA3;fontColor=#46495D;fillColor=#B2C9AB;rotation=-90;" parent="Od4-uNHZh2Ep6syD_bzf-107" vertex="1">
          <mxGeometry x="69.88" y="41.129999999999995" width="13.76" height="85.5" as="geometry" />
        </mxCell>
        <mxCell id="Od4-uNHZh2Ep6syD_bzf-106" value="Codebase" style="text;html=1;align=center;verticalAlign=middle;resizable=0;points=[];autosize=1;strokeColor=none;fillColor=none;fontColor=#46495D;" parent="Od4-uNHZh2Ep6syD_bzf-107" vertex="1">
          <mxGeometry x="39.25999999999999" y="84" width="75" height="26" as="geometry" />
        </mxCell>
        <mxCell id="Od4-uNHZh2Ep6syD_bzf-108" value="" style="group" parent="EoS8bVIuz2fhn0G_VsdN-4" vertex="1" connectable="0">
          <mxGeometry x="680" y="309" width="226" height="110" as="geometry" />
        </mxCell>
        <mxCell id="Od4-uNHZh2Ep6syD_bzf-109" value="" style="rounded=1;whiteSpace=wrap;html=1;strokeColor=#788AA3;fontColor=#46495D;fillColor=#B2C9AB;container=0;" parent="Od4-uNHZh2Ep6syD_bzf-108" vertex="1">
          <mxGeometry y="1" width="226" height="109" as="geometry" />
        </mxCell>
        <mxCell id="Od4-uNHZh2Ep6syD_bzf-110" value="" style="sketch=0;aspect=fixed;pointerEvents=1;shadow=0;dashed=0;html=1;strokeColor=none;labelPosition=center;verticalLabelPosition=bottom;verticalAlign=top;align=center;fillColor=#00188D;shape=mxgraph.mscae.enterprise.application_server2;fontColor=#46495D;container=0;" parent="Od4-uNHZh2Ep6syD_bzf-108" vertex="1">
          <mxGeometry x="96.00999999999999" y="26" width="33.97" height="39.5" as="geometry" />
        </mxCell>
        <mxCell id="Od4-uNHZh2Ep6syD_bzf-111" value="" style="sketch=0;aspect=fixed;pointerEvents=1;shadow=0;dashed=0;html=1;strokeColor=none;labelPosition=center;verticalLabelPosition=bottom;verticalAlign=top;align=center;fillColor=#00188D;shape=mxgraph.mscae.enterprise.database_server;fontColor=#46495D;container=0;" parent="Od4-uNHZh2Ep6syD_bzf-108" vertex="1">
          <mxGeometry x="164.11" y="25" width="30.78" height="40.5" as="geometry" />
        </mxCell>
        <mxCell id="Od4-uNHZh2Ep6syD_bzf-112" value="" style="sketch=0;aspect=fixed;pointerEvents=1;shadow=0;dashed=0;html=1;strokeColor=none;labelPosition=center;verticalLabelPosition=bottom;verticalAlign=top;align=center;fillColor=#00188D;shape=mxgraph.mscae.enterprise.web_server;fontColor=#46495D;container=0;" parent="Od4-uNHZh2Ep6syD_bzf-108" vertex="1">
          <mxGeometry x="35.00999999999999" y="26.5" width="29.64" height="39" as="geometry" />
        </mxCell>
        <mxCell id="Od4-uNHZh2Ep6syD_bzf-113" value="Server1" style="text;html=1;align=center;verticalAlign=middle;resizable=0;points=[];autosize=1;strokeColor=none;fillColor=none;fontColor=#46495D;container=0;" parent="Od4-uNHZh2Ep6syD_bzf-108" vertex="1">
          <mxGeometry x="84.00999999999999" width="61" height="26" as="geometry" />
        </mxCell>
        <mxCell id="Od4-uNHZh2Ep6syD_bzf-114" value="Nginx" style="text;html=1;align=center;verticalAlign=middle;resizable=0;points=[];autosize=1;strokeColor=none;fillColor=none;fontColor=#46495D;container=0;" parent="Od4-uNHZh2Ep6syD_bzf-108" vertex="1">
          <mxGeometry x="19.00999999999999" y="60.5" width="50" height="26" as="geometry" />
        </mxCell>
        <mxCell id="Od4-uNHZh2Ep6syD_bzf-115" value="Active app" style="text;html=1;align=center;verticalAlign=middle;resizable=0;points=[];autosize=1;strokeColor=none;fillColor=none;fontColor=#46495D;container=0;" parent="Od4-uNHZh2Ep6syD_bzf-108" vertex="1">
          <mxGeometry x="75.5" y="60.5" width="75" height="26" as="geometry" />
        </mxCell>
        <mxCell id="Od4-uNHZh2Ep6syD_bzf-116" value="MySQL" style="text;html=1;align=center;verticalAlign=middle;resizable=0;points=[];autosize=1;strokeColor=none;fillColor=none;fontColor=#46495D;container=0;" parent="Od4-uNHZh2Ep6syD_bzf-108" vertex="1">
          <mxGeometry x="150.5" y="60.5" width="58" height="26" as="geometry" />
        </mxCell>
        <mxCell id="Od4-uNHZh2Ep6syD_bzf-117" value="" style="strokeWidth=2;html=1;shape=mxgraph.flowchart.annotation_2;align=left;labelPosition=right;pointerEvents=1;strokeColor=#788AA3;fontColor=#46495D;fillColor=#B2C9AB;rotation=-90;" parent="Od4-uNHZh2Ep6syD_bzf-108" vertex="1">
          <mxGeometry x="69.88" y="41.129999999999995" width="13.76" height="85.5" as="geometry" />
        </mxCell>
        <mxCell id="Od4-uNHZh2Ep6syD_bzf-118" value="Codebase" style="text;html=1;align=center;verticalAlign=middle;resizable=0;points=[];autosize=1;strokeColor=none;fillColor=none;fontColor=#46495D;" parent="Od4-uNHZh2Ep6syD_bzf-108" vertex="1">
          <mxGeometry x="39.25999999999999" y="84" width="75" height="26" as="geometry" />
        </mxCell>
        <mxCell id="Od4-uNHZh2Ep6syD_bzf-119" value="" style="group" parent="EoS8bVIuz2fhn0G_VsdN-4" vertex="1" connectable="0">
          <mxGeometry x="680" y="166" width="226" height="110" as="geometry" />
        </mxCell>
        <mxCell id="Od4-uNHZh2Ep6syD_bzf-120" value="" style="rounded=1;whiteSpace=wrap;html=1;strokeColor=#788AA3;fontColor=#46495D;fillColor=#B2C9AB;container=0;" parent="Od4-uNHZh2Ep6syD_bzf-119" vertex="1">
          <mxGeometry y="1" width="226" height="109" as="geometry" />
        </mxCell>
        <mxCell id="Od4-uNHZh2Ep6syD_bzf-121" value="" style="sketch=0;aspect=fixed;pointerEvents=1;shadow=0;dashed=0;html=1;strokeColor=none;labelPosition=center;verticalLabelPosition=bottom;verticalAlign=top;align=center;fillColor=#00188D;shape=mxgraph.mscae.enterprise.application_server2;fontColor=#46495D;container=0;" parent="Od4-uNHZh2Ep6syD_bzf-119" vertex="1">
          <mxGeometry x="96.00999999999999" y="26" width="33.97" height="39.5" as="geometry" />
        </mxCell>
        <mxCell id="Od4-uNHZh2Ep6syD_bzf-122" value="" style="sketch=0;aspect=fixed;pointerEvents=1;shadow=0;dashed=0;html=1;strokeColor=none;labelPosition=center;verticalLabelPosition=bottom;verticalAlign=top;align=center;fillColor=#00188D;shape=mxgraph.mscae.enterprise.database_server;fontColor=#46495D;container=0;" parent="Od4-uNHZh2Ep6syD_bzf-119" vertex="1">
          <mxGeometry x="164.11" y="25" width="30.78" height="40.5" as="geometry" />
        </mxCell>
        <mxCell id="Od4-uNHZh2Ep6syD_bzf-123" value="" style="sketch=0;aspect=fixed;pointerEvents=1;shadow=0;dashed=0;html=1;strokeColor=none;labelPosition=center;verticalLabelPosition=bottom;verticalAlign=top;align=center;fillColor=#00188D;shape=mxgraph.mscae.enterprise.web_server;fontColor=#46495D;container=0;" parent="Od4-uNHZh2Ep6syD_bzf-119" vertex="1">
          <mxGeometry x="35.00999999999999" y="26.5" width="29.64" height="39" as="geometry" />
        </mxCell>
        <mxCell id="Od4-uNHZh2Ep6syD_bzf-124" value="Server2" style="text;html=1;align=center;verticalAlign=middle;resizable=0;points=[];autosize=1;strokeColor=none;fillColor=none;fontColor=#46495D;container=0;" parent="Od4-uNHZh2Ep6syD_bzf-119" vertex="1">
          <mxGeometry x="84.00999999999999" width="61" height="26" as="geometry" />
        </mxCell>
        <mxCell id="Od4-uNHZh2Ep6syD_bzf-125" value="Nginx" style="text;html=1;align=center;verticalAlign=middle;resizable=0;points=[];autosize=1;strokeColor=none;fillColor=none;fontColor=#46495D;container=0;" parent="Od4-uNHZh2Ep6syD_bzf-119" vertex="1">
          <mxGeometry x="19.00999999999999" y="60.5" width="50" height="26" as="geometry" />
        </mxCell>
        <mxCell id="Od4-uNHZh2Ep6syD_bzf-126" value="Active app" style="text;html=1;align=center;verticalAlign=middle;resizable=0;points=[];autosize=1;strokeColor=none;fillColor=none;fontColor=#46495D;container=0;" parent="Od4-uNHZh2Ep6syD_bzf-119" vertex="1">
          <mxGeometry x="75.5" y="60.5" width="75" height="26" as="geometry" />
        </mxCell>
        <mxCell id="Od4-uNHZh2Ep6syD_bzf-127" value="MySQL" style="text;html=1;align=center;verticalAlign=middle;resizable=0;points=[];autosize=1;strokeColor=none;fillColor=none;fontColor=#46495D;container=0;" parent="Od4-uNHZh2Ep6syD_bzf-119" vertex="1">
          <mxGeometry x="150.5" y="60.5" width="58" height="26" as="geometry" />
        </mxCell>
        <mxCell id="Od4-uNHZh2Ep6syD_bzf-128" value="" style="strokeWidth=2;html=1;shape=mxgraph.flowchart.annotation_2;align=left;labelPosition=right;pointerEvents=1;strokeColor=#788AA3;fontColor=#46495D;fillColor=#B2C9AB;rotation=-90;" parent="Od4-uNHZh2Ep6syD_bzf-119" vertex="1">
          <mxGeometry x="69.88" y="41.129999999999995" width="13.76" height="85.5" as="geometry" />
        </mxCell>
        <mxCell id="Od4-uNHZh2Ep6syD_bzf-129" value="Codebase" style="text;html=1;align=center;verticalAlign=middle;resizable=0;points=[];autosize=1;strokeColor=none;fillColor=none;fontColor=#46495D;" parent="Od4-uNHZh2Ep6syD_bzf-119" vertex="1">
          <mxGeometry x="39.25999999999999" y="84" width="75" height="26" as="geometry" />
        </mxCell>
        <mxCell id="Od4-uNHZh2Ep6syD_bzf-130" value="" style="edgeStyle=none;orthogonalLoop=1;jettySize=auto;html=1;endArrow=classic;startArrow=classic;endSize=8;startSize=8;rounded=0;strokeColor=#788AA3;fontColor=#46495D;fillColor=#B2C9AB;entryX=0;entryY=0.5;entryDx=0;entryDy=0;" parent="EoS8bVIuz2fhn0G_VsdN-4" source="Od4-uNHZh2Ep6syD_bzf-56" target="Od4-uNHZh2Ep6syD_bzf-120" edge="1">
          <mxGeometry width="100" relative="1" as="geometry">
            <mxPoint x="566" y="227" as="sourcePoint" />
            <mxPoint x="666" y="227" as="targetPoint" />
            <Array as="points" />
          </mxGeometry>
        </mxCell>
        <mxCell id="Od4-uNHZh2Ep6syD_bzf-131" value="" style="edgeStyle=none;orthogonalLoop=1;jettySize=auto;html=1;endArrow=classic;startArrow=classic;endSize=8;startSize=8;rounded=0;strokeColor=#788AA3;fontColor=#46495D;fillColor=#B2C9AB;entryX=0;entryY=0.5;entryDx=0;entryDy=0;" parent="EoS8bVIuz2fhn0G_VsdN-4" edge="1">
          <mxGeometry width="100" relative="1" as="geometry">
            <mxPoint x="593" y="504" as="sourcePoint" />
            <mxPoint x="672" y="505" as="targetPoint" />
            <Array as="points" />
          </mxGeometry>
        </mxCell>
        <mxCell id="Od4-uNHZh2Ep6syD_bzf-132" value="" style="edgeStyle=none;orthogonalLoop=1;jettySize=auto;html=1;endArrow=classic;startArrow=classic;endSize=8;startSize=8;rounded=0;strokeColor=#788AA3;fontColor=#46495D;fillColor=#B2C9AB;entryX=0;entryY=0.5;entryDx=0;entryDy=0;" parent="EoS8bVIuz2fhn0G_VsdN-4" edge="1">
          <mxGeometry width="100" relative="1" as="geometry">
            <mxPoint x="598.41" y="368.5" as="sourcePoint" />
            <mxPoint x="677.4100000000001" y="369.5" as="targetPoint" />
            <Array as="points" />
          </mxGeometry>
        </mxCell>
        <mxCell id="EoS8bVIuz2fhn0G_VsdN-3" value="User" style="text;html=1;align=center;verticalAlign=middle;resizable=0;points=[];autosize=1;strokeColor=none;fillColor=none;fontColor=#46495D;" parent="EoS8bVIuz2fhn0G_VsdN-4" vertex="1">
          <mxGeometry x="18.5" y="195" width="44" height="26" as="geometry" />
        </mxCell>
      </root>
    </mxGraphModel>
  </diagram>
</mxfile>
